<mxfile host="app.diagrams.net" modified="2021-11-08T21:14:19.094Z" agent="5.0 (X11)" etag="yOL5MkoMznZAlf3p4Q8v" version="15.7.0" type="github">
  <diagram id="01x9vOw-YcCeUOSVCB9y" name="Page-1">
    <mxGraphModel dx="2031" dy="1097" grid="1" gridSize="10" guides="1" tooltips="1" connect="1" arrows="1" fold="1" page="1" pageScale="1" pageWidth="827" pageHeight="1169" math="0" shadow="0">
      <root>
        <mxCell id="0" />
        <mxCell id="1" parent="0" />
        <mxCell id="kfvRkaSIjlC4-Z6SCoME-39" value="API" style="shape=folder;fontStyle=1;spacingTop=10;tabWidth=30;tabHeight=10;tabPosition=left;html=1;labelPosition=center;verticalLabelPosition=top;align=center;verticalAlign=bottom;" vertex="1" parent="1">
          <mxGeometry x="370" y="50" width="200" height="210" as="geometry" />
        </mxCell>
        <mxCell id="kfvRkaSIjlC4-Z6SCoME-1" value="Rest Api" style="shape=folder;fontStyle=1;spacingTop=10;tabWidth=30;tabHeight=10;tabPosition=left;html=1;labelPosition=center;verticalLabelPosition=top;align=center;verticalAlign=bottom;textDirection=rtl;" vertex="1" parent="1">
          <mxGeometry x="30" y="40" width="200" height="210" as="geometry" />
        </mxCell>
        <mxCell id="kfvRkaSIjlC4-Z6SCoME-52" style="edgeStyle=orthogonalEdgeStyle;curved=1;rounded=0;orthogonalLoop=1;jettySize=auto;html=1;fontSize=9;" edge="1" parent="1" source="kfvRkaSIjlC4-Z6SCoME-4" target="kfvRkaSIjlC4-Z6SCoME-18">
          <mxGeometry relative="1" as="geometry" />
        </mxCell>
        <mxCell id="kfvRkaSIjlC4-Z6SCoME-4" value="«POST»&lt;br&gt;&lt;b&gt;Importação&lt;br&gt;nota PDF&lt;br&gt;&lt;/b&gt;" style="html=1;" vertex="1" parent="1">
          <mxGeometry x="78" y="80" width="110" height="50" as="geometry" />
        </mxCell>
        <mxCell id="kfvRkaSIjlC4-Z6SCoME-16" value="" style="ellipse;whiteSpace=wrap;html=1;strokeWidth=2;fillWeight=2;hachureGap=8;fillColor=#990000;fillStyle=dots;sketch=1;" vertex="1" parent="1">
          <mxGeometry x="234" y="355" width="120" height="60" as="geometry" />
        </mxCell>
        <mxCell id="kfvRkaSIjlC4-Z6SCoME-27" value="&lt;div style=&quot;font-size: 16px&quot;&gt;&lt;font style=&quot;font-size: 16px&quot;&gt;Repositório&lt;/font&gt;&lt;/div&gt;&lt;div style=&quot;font-size: 16px&quot;&gt;&lt;font style=&quot;font-size: 16px&quot;&gt;de aquivos&lt;/font&gt;&lt;/div&gt;" style="text;strokeColor=none;fillColor=none;html=1;fontSize=24;fontStyle=1;verticalAlign=middle;align=center;strokeWidth=1;" vertex="1" parent="1">
          <mxGeometry x="244" y="300" width="100" height="50" as="geometry" />
        </mxCell>
        <mxCell id="kfvRkaSIjlC4-Z6SCoME-45" style="edgeStyle=orthogonalEdgeStyle;rounded=0;orthogonalLoop=1;jettySize=auto;html=1;fontSize=16;curved=1;" edge="1" parent="1" source="kfvRkaSIjlC4-Z6SCoME-18" target="kfvRkaSIjlC4-Z6SCoME-16">
          <mxGeometry relative="1" as="geometry">
            <Array as="points">
              <mxPoint x="550" y="110" />
              <mxPoint x="550" y="380" />
            </Array>
          </mxGeometry>
        </mxCell>
        <mxCell id="kfvRkaSIjlC4-Z6SCoME-18" value="Engine&lt;br&gt;Importação" style="whiteSpace=wrap;html=1;" vertex="1" parent="1">
          <mxGeometry x="420" y="90" width="100" height="40" as="geometry" />
        </mxCell>
        <mxCell id="kfvRkaSIjlC4-Z6SCoME-48" style="edgeStyle=orthogonalEdgeStyle;rounded=0;orthogonalLoop=1;jettySize=auto;html=1;entryX=0;entryY=0.75;entryDx=0;entryDy=0;fontSize=16;curved=1;" edge="1" parent="1" source="kfvRkaSIjlC4-Z6SCoME-41" target="kfvRkaSIjlC4-Z6SCoME-42">
          <mxGeometry relative="1" as="geometry" />
        </mxCell>
        <mxCell id="kfvRkaSIjlC4-Z6SCoME-41" value="«GET»&lt;br&gt;&lt;div&gt;&lt;b&gt;Extrair dados&lt;/b&gt;&lt;/div&gt;&lt;div&gt;&lt;b&gt;nota&lt;br&gt;&lt;/b&gt;&lt;/div&gt;" style="html=1;" vertex="1" parent="1">
          <mxGeometry x="78" y="160" width="110" height="50" as="geometry" />
        </mxCell>
        <mxCell id="kfvRkaSIjlC4-Z6SCoME-46" style="edgeStyle=orthogonalEdgeStyle;rounded=0;orthogonalLoop=1;jettySize=auto;html=1;fontSize=16;curved=1;" edge="1" parent="1" source="kfvRkaSIjlC4-Z6SCoME-42" target="kfvRkaSIjlC4-Z6SCoME-16">
          <mxGeometry relative="1" as="geometry">
            <Array as="points">
              <mxPoint x="460" y="360" />
            </Array>
          </mxGeometry>
        </mxCell>
        <mxCell id="kfvRkaSIjlC4-Z6SCoME-42" value="Engine&lt;br&gt;Extração de dados PDF" style="whiteSpace=wrap;html=1;" vertex="1" parent="1">
          <mxGeometry x="410" y="170" width="120" height="60" as="geometry" />
        </mxCell>
        <mxCell id="kfvRkaSIjlC4-Z6SCoME-49" value="Retorna nome do arquivo" style="text;html=1;strokeColor=none;fillColor=none;align=center;verticalAlign=middle;whiteSpace=wrap;rounded=0;fontSize=9;" vertex="1" parent="1">
          <mxGeometry x="240" y="80" width="120" height="30" as="geometry" />
        </mxCell>
        <mxCell id="kfvRkaSIjlC4-Z6SCoME-54" value="Param: nome arquivo" style="text;html=1;strokeColor=none;fillColor=none;align=center;verticalAlign=middle;whiteSpace=wrap;rounded=0;fontSize=9;" vertex="1" parent="1">
          <mxGeometry x="240" y="210" width="120" height="30" as="geometry" />
        </mxCell>
      </root>
    </mxGraphModel>
  </diagram>
</mxfile>
